<svg width="130" height="189" viewBox="0 0 130 189" fill="none" xmlns="http://www.w3.org/2000/svg">
<path d="M0.8 188.744V158.536L78.112 89.928C83.9147 84.808 88.0107 79.9867 90.4 75.464C92.7893 70.9413 93.984 66.7173 93.984 62.792C93.984 57.16 92.832 52.168 90.528 47.816C88.224 43.3787 84.9813 39.9227 80.8 37.448C76.6187 34.888 71.712 33.608 66.08 33.608C60.192 33.608 54.9867 34.9733 50.464 37.704C46.0267 40.3493 42.5707 43.8907 40.096 48.328C37.6213 52.68 36.4693 57.416 36.64 62.536H0.8C0.8 49.9067 3.57333 38.984 9.12 29.768C14.6667 20.552 22.3893 13.4267 32.288 8.392C42.1867 3.35733 53.7067 0.839996 66.848 0.839996C78.88 0.839996 89.632 3.48533 99.104 8.77599C108.661 13.9813 116.171 21.2773 121.632 30.664C127.093 40.0507 129.824 50.9307 129.824 63.304C129.824 72.4347 128.544 80.0293 125.984 86.088C123.424 92.0613 119.627 97.608 114.592 102.728C109.557 107.763 103.371 113.48 96.032 119.88L46.112 163.656L43.296 155.976H129.824V188.744H0.8Z" fill="url(#paint0_linear_497_68)"/>
<defs>
<linearGradient id="paint0_linear_497_68" x1="65.5" y1="-84" x2="65.5" y2="266" gradientUnits="userSpaceOnUse">
<stop stop-color="#2941AB"/>
<stop offset="0.723958" stop-color="white" stop-opacity="0"/>
</linearGradient>
</defs>
</svg>
