<svg width="126" height="189" viewBox="0 0 126 189" fill="none" xmlns="http://www.w3.org/2000/svg">
<path d="M61.68 188.328C52.464 188.328 43.6747 186.493 35.312 182.824C26.9493 179.069 19.6533 173.821 13.424 167.08C7.28 160.339 2.88533 152.403 0.240001 143.272L34.032 134.312C35.824 141.053 39.3227 146.301 44.528 150.056C49.8187 153.725 55.536 155.56 61.68 155.56C66.9707 155.56 71.792 154.28 76.144 151.72C80.5813 149.16 84.08 145.704 86.64 141.352C89.2853 137 90.608 132.179 90.608 126.888C90.608 118.952 87.8773 112.168 82.416 106.536C77.04 100.819 70.128 97.96 61.68 97.96C59.12 97.96 56.6453 98.344 54.256 99.112C51.8667 99.7947 49.5627 100.776 47.344 102.056L31.728 74.664L90.352 26.024L92.912 33.448H7.408V0.679993H122.608V33.448L77.04 77.48L76.784 67.752C87.3653 69.3733 96.2827 73.0853 103.536 78.888C110.875 84.6053 116.421 91.688 120.176 100.136C124.016 108.499 125.936 117.416 125.936 126.888C125.936 138.493 122.992 148.947 117.104 158.248C111.216 167.464 103.408 174.803 93.68 180.264C83.952 185.64 73.2853 188.328 61.68 188.328Z" fill="url(#paint0_linear_499_69)"/>
<defs>
<linearGradient id="paint0_linear_499_69" x1="66" y1="-88" x2="66" y2="262" gradientUnits="userSpaceOnUse">
<stop stop-color="#2941AB"/>
<stop offset="0.723958" stop-color="white" stop-opacity="0"/>
</linearGradient>
</defs>
</svg>
