<svg width="126" height="189" viewBox="0 0 126 189" fill="none" xmlns="http://www.w3.org/2000/svg">
<path d="M60.704 188.84C51.4027 188.84 42.656 186.92 34.464 183.08C26.3573 179.24 19.36 173.907 13.472 167.08C7.584 160.253 3.36 152.317 0.8 143.272L34.336 134.312C35.4453 138.664 37.408 142.419 40.224 145.576C43.1253 148.733 46.4533 151.208 50.208 153C54.048 154.707 57.9733 155.56 61.984 155.56C67.2747 155.56 72.096 154.28 76.448 151.72C80.8853 149.16 84.384 145.704 86.944 141.352C89.5893 137 90.912 132.179 90.912 126.888C90.912 121.597 89.5893 116.776 86.944 112.424C84.384 108.072 80.8853 104.616 76.448 102.056C72.096 99.496 67.2747 98.216 61.984 98.216C55.4987 98.216 50.208 99.3253 46.112 101.544C42.016 103.677 38.944 105.725 36.896 107.688L7.456 98.728L13.088 0.679993H113.696V33.192H32.288L44.576 21.672L40.736 84.904L34.848 77.736C39.456 73.9813 44.704 71.2507 50.592 69.544C56.48 67.8373 61.984 66.984 67.104 66.984C78.7093 66.984 88.9067 69.5867 97.696 74.792C106.571 79.912 113.483 86.9947 118.432 96.04C123.467 105 125.984 115.283 125.984 126.888C125.984 138.493 122.955 148.989 116.896 158.376C110.837 167.677 102.859 175.101 92.96 180.648C83.0613 186.109 72.3093 188.84 60.704 188.84Z" fill="url(#paint0_linear_499_71)"/>
<defs>
<linearGradient id="paint0_linear_499_71" x1="63.5" y1="-88" x2="63.5" y2="262" gradientUnits="userSpaceOnUse">
<stop stop-color="#2941AB"/>
<stop offset="0.723958" stop-color="white" stop-opacity="0"/>
</linearGradient>
</defs>
</svg>
