<svg width="136" height="108" viewBox="0 0 136 108" fill="none" xmlns="http://www.w3.org/2000/svg">
<g filter="url(#filter0_d_523_83)">
<path d="M112.428 8.2985C104.034 4.37086 95.153 1.5801 86.0209 0C84.8834 2.0565 83.5544 4.8225 82.6379 7.023C72.7919 5.5425 63.0364 5.5425 53.3714 7.023C52.4554 4.823 51.0965 2.0565 49.9485 0C40.8074 1.58083 31.9193 4.37869 23.521 8.319C6.80896 33.5735 2.27847 58.2 4.54347 82.478C15.628 90.7555 26.37 95.784 36.931 99.0745C39.5556 95.465 41.8758 91.6437 43.8675 87.65C40.0756 86.2064 36.4201 84.4273 32.9445 82.334C33.8591 81.656 34.7522 80.9495 35.6225 80.2155C56.6834 90.0665 79.5674 90.0665 100.377 80.2155C101.251 80.9447 102.144 81.6511 103.055 82.334C99.5737 84.4328 95.9114 86.2154 92.1119 87.6605C94.1149 91.6705 96.4309 95.4955 99.0484 99.0845C109.619 95.7945 120.371 90.766 131.456 82.478C134.114 54.334 126.916 29.933 112.428 8.298V8.2985ZM46.7369 67.5475C40.4145 67.5475 35.2295 61.645 35.2295 54.4575C35.2295 47.27 40.304 41.3575 46.7369 41.3575C53.1704 41.3575 58.3549 47.2595 58.2444 54.4575C58.2544 61.645 53.1704 67.5475 46.7369 67.5475ZM89.2624 67.5475C82.9399 67.5475 77.7554 61.645 77.7554 54.4575C77.7554 47.27 82.8294 41.3575 89.2624 41.3575C95.6959 41.3575 100.88 47.2595 100.77 54.4575C100.77 61.645 95.6959 67.5475 89.2624 67.5475Z" fill="#5865F2"/>
</g>
<defs>
<filter id="filter0_d_523_83" x="0" y="0" width="136" height="107.084" filterUnits="userSpaceOnUse" color-interpolation-filters="sRGB">
<feFlood flood-opacity="0" result="BackgroundImageFix"/>
<feColorMatrix in="SourceAlpha" type="matrix" values="0 0 0 0 0 0 0 0 0 0 0 0 0 0 0 0 0 0 127 0" result="hardAlpha"/>
<feOffset dy="4"/>
<feGaussianBlur stdDeviation="2"/>
<feComposite in2="hardAlpha" operator="out"/>
<feColorMatrix type="matrix" values="0 0 0 0 0 0 0 0 0 0 0 0 0 0 0 0 0 0 0.25 0"/>
<feBlend mode="normal" in2="BackgroundImageFix" result="effect1_dropShadow_523_83"/>
<feBlend mode="normal" in="SourceGraphic" in2="effect1_dropShadow_523_83" result="shape"/>
</filter>
</defs>
</svg>
