<svg width="300" height="204" viewBox="0 0 300 204" fill="none" xmlns="http://www.w3.org/2000/svg">
<path fill-rule="evenodd" clip-rule="evenodd" d="M149.213 139.054L126.534 126.603C126.534 126.603 88.61 35.1551 0 2.30859L300 0.638428C174.903 57.1456 171.893 126.603 171.893 126.603L149.213 139.054Z" fill="url(#paint0_linear_493_415)"/>
<path d="M117.242 129.45L144.671 113.94L172.1 128.674L144.671 144.184L117.242 129.45Z" fill="#F3F3F3"/>
<path d="M122.083 129.768L144.671 117.042L167.259 129.132L144.671 141.858L122.083 129.768Z" fill="#C4C4C4" fill-opacity="0.6"/>
<path d="M144.67 129.45V117.042L167.259 129.132L144.67 141.858V129.45Z" fill="#797B84" fill-opacity="0.2"/>
<path d="M117.242 129.449V160.469L144.671 175.978V144.184L117.242 129.449Z" fill="#E3E3E3"/>
<path opacity="0.4" d="M71.886 188.845L117.514 160.739L144.731 176.182L99.1027 203.362L71.886 188.845Z" fill="url(#paint1_linear_493_415)"/>
<path d="M144.67 144.184L172.099 128.674V159.849L144.67 175.979V144.184Z" fill="#EDEDED"/>
<defs>
<linearGradient id="paint0_linear_493_415" x1="145.164" y1="-16.5819" x2="145.164" y2="139.821" gradientUnits="userSpaceOnUse">
<stop stop-color="white" stop-opacity="0"/>
<stop offset="0.64517" stop-color="#C4C4C4" stop-opacity="0.43"/>
<stop offset="1" stop-color="#C4C4C4" stop-opacity="0"/>
</linearGradient>
<linearGradient id="paint1_linear_493_415" x1="104.706" y1="183.131" x2="118.377" y2="160.297" gradientUnits="userSpaceOnUse">
<stop offset="0.132597" stop-color="#C4C4C4" stop-opacity="0"/>
<stop offset="1" stop-color="#484848"/>
</linearGradient>
</defs>
</svg>
