<svg width="300" height="196" viewBox="0 0 300 196" fill="none" xmlns="http://www.w3.org/2000/svg">
<path fill-rule="evenodd" clip-rule="evenodd" d="M0.0955436 108.32L0.0739746 97.0491C0.0739746 97.0491 149.8 22.3634 150.919 23.0025L299.907 98.5011V108.665C299.907 108.665 299.907 110.117 298.455 110.843L152.117 195.235C150.999 195.874 149.241 195.874 148.123 195.235L0.97428 110.477C-0.144112 109.838 0.0955436 108.32 0.0955436 108.32Z" fill="#DBDDDE"/>
<path fill-rule="evenodd" clip-rule="evenodd" d="M0.799897 95.5969L148.276 11.8618C149.394 11.2227 151.152 11.2227 152.27 11.8618L299.161 97.0489C300.28 97.688 300.28 98.7265 299.161 99.3656L153.548 183.056C152.43 183.695 150.672 183.695 149.554 183.056L0.879782 97.9136C-0.238609 97.2745 -0.318495 96.236 0.799897 95.5969Z" fill="#F3F3F3"/>
<path d="M94.8264 118.625L116.011 106.209L137.196 118.004L116.011 130.42L94.8264 118.625Z" fill="#282828" fill-opacity="0.08"/>
<path d="M98.8616 72.9189L116.011 62.8309L133.161 72.4145L116.011 82.5024L98.8616 72.9189Z" fill="#06AFFF"/>
<path d="M98.8616 72.9189V93.0948L116.011 103.183V82.5025L98.8616 72.9189Z" fill="#2F80ED"/>
<path d="M116.011 82.5024L133.16 72.4144V92.6912L116.011 103.183V82.5024Z" fill="#3C8AFE"/>
<ellipse cx="170.991" cy="11.3825" rx="11.6011" ry="11.0967" fill="url(#paint0_radial_491_340)"/>
<path fill-rule="evenodd" clip-rule="evenodd" d="M182.312 88.6366C181.253 93.0525 175.551 96.0449 169.324 95.2147C163.096 94.3845 159.124 90.0797 159.996 85.5562C161.056 81.1403 166.758 78.1479 172.985 78.9781C179.212 79.8083 183.185 84.1131 182.312 88.6366Z" fill="#282828" fill-opacity="0.04"/>
<path fill-rule="evenodd" clip-rule="evenodd" d="M129.63 162.702L234.04 104.192L239.588 105.2L135.178 165.728L129.63 162.702Z" fill="url(#paint1_linear_491_340)"/>
<path fill-rule="evenodd" clip-rule="evenodd" d="M240.093 14.4092V104.336H234.04V14.4092H240.093Z" fill="#FFD215"/>
<path fill-rule="evenodd" clip-rule="evenodd" d="M237.067 102.462C238.782 102.462 240.093 103.337 240.093 104.336C240.093 105.335 238.782 106.209 237.067 106.209C235.352 106.209 234.04 105.335 234.04 104.336C234.04 103.337 235.352 102.462 237.067 102.462Z" fill="#FFD215"/>
<path fill-rule="evenodd" clip-rule="evenodd" d="M237.067 13.4001C238.782 13.4001 240.093 13.8709 240.093 14.4089C240.093 14.947 238.782 15.4177 237.067 15.4177C235.352 15.4177 234.04 14.947 234.04 14.4089C234.04 13.8709 235.352 13.4001 237.067 13.4001Z" fill="#FFEE50"/>
<defs>
<radialGradient id="paint0_radial_491_340" cx="0" cy="0" r="1" gradientUnits="userSpaceOnUse" gradientTransform="translate(171.495 22.4792) rotate(-90) scale(22.1935 21.9291)">
<stop stop-color="#15955E"/>
<stop offset="1" stop-color="#42E7AA"/>
</radialGradient>
<linearGradient id="paint1_linear_491_340" x1="87.2605" y1="144.543" x2="156.867" y2="23.9924" gradientUnits="userSpaceOnUse">
<stop stop-color="white" stop-opacity="0"/>
<stop offset="0.64517" stop-color="#C4C4C4" stop-opacity="0.43"/>
<stop offset="1" stop-color="#C4C4C4" stop-opacity="0"/>
</linearGradient>
</defs>
</svg>
