<svg width="300" height="200" viewBox="0 0 300 200" fill="none" xmlns="http://www.w3.org/2000/svg">
<g opacity="0.4">
<path d="M226.084 144.481L238.938 139.401L251.791 144.227L238.938 149.307L226.084 144.481Z" fill="white"/>
<path d="M228.353 144.585L238.938 140.417L249.523 144.377L238.938 148.545L228.353 144.585Z" fill="#797B84"/>
<path d="M238.938 144.481V140.417L249.523 144.377L238.938 148.545V144.481Z" fill="#393A4A"/>
<path d="M226.084 144.481V154.641L238.938 159.721V149.307L226.084 144.481Z" fill="#BDBDBD"/>
<path d="M238.938 149.307L251.791 144.227V154.438L238.938 159.721V149.307Z" fill="#F3F3F3"/>
<path d="M205.79 151.616L218.643 146.536L231.497 151.362L218.643 156.443L205.79 151.616Z" fill="white"/>
<path d="M208.058 151.721L218.643 147.552L229.228 151.512L218.643 155.681L208.058 151.721Z" fill="#797B84"/>
<path d="M218.643 151.617V147.552L229.228 151.512L218.643 155.681V151.617Z" fill="#393A4A"/>
<path d="M205.79 151.616V161.777L218.643 166.857V156.443L205.79 151.616Z" fill="#BDBDBD"/>
<path d="M218.643 156.443L231.496 151.363V161.574L218.643 166.857V156.443Z" fill="#F3F3F3"/>
<path d="M246.475 151.616L259.328 146.536L272.182 151.362L259.328 156.443L246.475 151.616Z" fill="white"/>
<path d="M248.743 151.721L259.328 147.552L269.913 151.512L259.328 155.681L248.743 151.721Z" fill="#797B84"/>
<path d="M259.329 151.617V147.552L269.914 151.512L259.329 155.681V151.617Z" fill="#393A4A"/>
<path d="M246.475 151.616V161.777L259.328 166.857V156.443L246.475 151.616Z" fill="#BDBDBD"/>
<path d="M259.329 156.443L272.182 151.363V161.574L259.329 166.857V156.443Z" fill="#F3F3F3"/>
<path d="M226.084 159.609L238.938 154.529L251.791 159.355L238.938 164.435L226.084 159.609Z" fill="white"/>
<path d="M228.353 159.713L238.938 155.544L249.523 159.504L238.938 163.673L228.353 159.713Z" fill="#797B84"/>
<path d="M238.938 159.609V155.544L249.523 159.504L238.938 163.673V159.609Z" fill="#393A4A"/>
<path d="M226.084 159.609V169.769L238.938 174.849V164.435L226.084 159.609Z" fill="#BDBDBD"/>
<path d="M238.938 164.435L251.791 159.354V169.566L238.938 174.849V164.435Z" fill="#F3F3F3"/>
<path fill-rule="evenodd" clip-rule="evenodd" d="M238.77 163.662L208.243 151.817L179.781 59.4819H300L269.839 151.531L238.77 163.662Z" fill="url(#paint0_linear_474_3005)" fill-opacity="0.8"/>
</g>
<g opacity="0.4">
<path d="M136.51 85.5672L149.363 80.4871L162.216 85.3132L149.363 90.3933L136.51 85.5672Z" fill="white"/>
<path d="M138.778 85.6712L149.363 81.5029L159.948 85.4628L149.363 89.6311L138.778 85.6712Z" fill="#797B84"/>
<path d="M149.363 85.567V81.5029L159.948 85.4628L149.363 89.6311V85.567Z" fill="#393A4A"/>
<path d="M136.51 85.5671V95.7274L149.363 100.807V90.3932L136.51 85.5671Z" fill="#BDBDBD"/>
<path d="M149.363 90.3931L162.216 85.313V95.524L149.363 100.807V90.3931Z" fill="#F3F3F3"/>
<path d="M116.215 92.7029L129.068 87.6228L141.921 92.4489L129.068 97.529L116.215 92.7029Z" fill="white"/>
<path d="M118.483 92.807L129.068 88.6387L139.653 92.5985L129.068 96.7668L118.483 92.807Z" fill="#797B84"/>
<path d="M129.068 92.7028V88.6387L139.653 92.5985L129.068 96.7668V92.7028Z" fill="#393A4A"/>
<path d="M116.215 92.7029V102.863L129.068 107.943V97.529L116.215 92.7029Z" fill="#BDBDBD"/>
<path d="M129.068 97.5288L141.921 92.4487V102.66L129.068 107.943V97.5288Z" fill="#F3F3F3"/>
<path d="M156.9 92.7029L169.753 87.6228L182.607 92.4489L169.753 97.529L156.9 92.7029Z" fill="white"/>
<path d="M159.168 92.807L169.753 88.6387L180.338 92.5985L169.753 96.7668L159.168 92.807Z" fill="#797B84"/>
<path d="M169.753 92.7028V88.6387L180.339 92.5985L169.753 96.7668V92.7028Z" fill="#393A4A"/>
<path d="M156.9 92.7029V102.863L169.753 107.943V97.529L156.9 92.7029Z" fill="#BDBDBD"/>
<path d="M169.753 97.5288L182.607 92.4487V102.66L169.753 107.943V97.5288Z" fill="#F3F3F3"/>
<path d="M136.51 100.695L149.363 95.6145L162.216 100.441L149.363 105.521L136.51 100.695Z" fill="white"/>
<path d="M138.778 100.799L149.363 96.6306L159.948 100.59L149.363 104.759L138.778 100.799Z" fill="#797B84"/>
<path d="M149.363 100.695V96.6306L159.948 100.59L149.363 104.759V100.695Z" fill="#393A4A"/>
<path d="M136.51 100.695V110.855L149.363 115.935V105.521L136.51 100.695Z" fill="#BDBDBD"/>
<path d="M149.363 105.521L162.216 100.441V110.652L149.363 115.935V105.521Z" fill="#F3F3F3"/>
<path fill-rule="evenodd" clip-rule="evenodd" d="M149.195 104.748L118.668 92.903L90.2061 0.568115H210.425L180.264 92.6176L149.195 104.748Z" fill="url(#paint1_linear_474_3005)" fill-opacity="0.8"/>
</g>
<g opacity="0.4">
<path d="M135.248 118.203L148.101 113.123L160.955 117.949L148.101 123.029L135.248 118.203Z" fill="white"/>
<path d="M137.516 118.307L148.101 114.139L158.686 118.099L148.101 122.267L137.516 118.307Z" fill="#797B84"/>
<path d="M148.101 118.203V114.139L158.686 118.099L148.101 122.267V118.203Z" fill="#393A4A"/>
<path d="M135.248 118.203V128.363L148.101 133.443V123.029L135.248 118.203Z" fill="#BDBDBD"/>
<path d="M148.101 123.029L160.955 117.949V128.16L148.101 133.443V123.029Z" fill="#F3F3F3"/>
<path d="M114.953 125.338L127.807 120.258L140.66 125.084L127.807 130.165L114.953 125.338Z" fill="white"/>
<path d="M117.221 125.443L127.807 121.274L138.392 125.234L127.807 129.403L117.221 125.443Z" fill="#797B84"/>
<path d="M127.807 125.338V121.274L138.392 125.234L127.807 129.403V125.338Z" fill="#393A4A"/>
<path d="M114.953 125.338V135.499L127.807 140.579V130.164L114.953 125.338Z" fill="#BDBDBD"/>
<path d="M127.807 130.165L140.66 125.084V135.295L127.807 140.579V130.165Z" fill="#F3F3F3"/>
<path d="M155.638 125.338L168.492 120.258L181.345 125.084L168.492 130.165L155.638 125.338Z" fill="white"/>
<path d="M157.906 125.443L168.492 121.274L179.077 125.234L168.492 129.403L157.906 125.443Z" fill="#797B84"/>
<path d="M168.492 125.338V121.274L179.077 125.234L168.492 129.403V125.338Z" fill="#393A4A"/>
<path d="M155.638 125.338V135.499L168.492 140.579V130.164L155.638 125.338Z" fill="#BDBDBD"/>
<path d="M168.492 130.165L181.345 125.084V135.295L168.492 140.579V130.165Z" fill="#F3F3F3"/>
<path d="M135.248 133.33L148.101 128.25L160.955 133.076L148.101 138.156L135.248 133.33Z" fill="white"/>
<path d="M137.516 133.435L148.101 129.266L158.686 133.226L148.101 137.395L137.516 133.435Z" fill="#797B84"/>
<path d="M148.101 133.33V129.266L158.686 133.226L148.101 137.395V133.33Z" fill="#393A4A"/>
<path d="M135.248 133.33V143.491L148.101 148.571V138.156L135.248 133.33Z" fill="#BDBDBD"/>
<path d="M148.101 138.157L160.955 133.077V143.288L148.101 148.571V138.157Z" fill="#F3F3F3"/>
<path fill-rule="evenodd" clip-rule="evenodd" d="M147.933 137.384L117.406 125.539L88.9443 33.2039H209.163L179.002 125.253L147.933 137.384Z" fill="url(#paint2_linear_474_3005)" fill-opacity="0.8"/>
</g>
<g opacity="0.4">
<path d="M51.3501 104.64L64.2035 99.5598L77.0569 104.386L64.2035 109.466L51.3501 104.64Z" fill="white"/>
<path d="M53.6182 104.744L64.2033 100.576L74.7884 104.536L64.2033 108.704L53.6182 104.744Z" fill="#797B84"/>
<path d="M64.2036 104.64V100.576L74.7887 104.536L64.2036 108.704V104.64Z" fill="#393A4A"/>
<path d="M51.3501 104.64V114.8L64.2035 119.88V109.466L51.3501 104.64Z" fill="#BDBDBD"/>
<path d="M64.2036 109.466L77.057 104.386V114.597L64.2036 119.88V109.466Z" fill="#F3F3F3"/>
<path d="M31.0552 111.775L43.9086 106.695L56.7619 111.521L43.9086 116.602L31.0552 111.775Z" fill="white"/>
<path d="M33.3235 111.88L43.9086 107.711L54.4938 111.671L43.9086 115.84L33.3235 111.88Z" fill="#797B84"/>
<path d="M43.9087 111.776V107.711L54.4938 111.671L43.9087 115.84V111.776Z" fill="#393A4A"/>
<path d="M31.0552 111.775V121.936L43.9086 127.016V116.601L31.0552 111.775Z" fill="#BDBDBD"/>
<path d="M43.9087 116.602L56.7621 111.521V121.732L43.9087 127.016V116.602Z" fill="#F3F3F3"/>
<path d="M71.7402 111.775L84.5936 106.695L97.447 111.521L84.5936 116.602L71.7402 111.775Z" fill="white"/>
<path d="M74.0085 111.88L84.5937 107.711L95.1788 111.671L84.5937 115.84L74.0085 111.88Z" fill="#797B84"/>
<path d="M84.5938 111.776V107.711L95.1789 111.671L84.5938 115.84V111.776Z" fill="#393A4A"/>
<path d="M71.7402 111.775V121.936L84.5936 127.016V116.601L71.7402 111.775Z" fill="#BDBDBD"/>
<path d="M84.5938 116.602L97.4471 111.521V121.732L84.5938 127.016V116.602Z" fill="#F3F3F3"/>
<path d="M51.3501 119.767L64.2035 114.687L77.0569 119.513L64.2035 124.593L51.3501 119.767Z" fill="white"/>
<path d="M53.6182 119.872L64.2033 115.703L74.7884 119.663L64.2033 123.832L53.6182 119.872Z" fill="#797B84"/>
<path d="M64.2036 119.767V115.703L74.7887 119.663L64.2036 123.832V119.767Z" fill="#393A4A"/>
<path d="M51.3501 119.767V129.928L64.2035 135.008V124.593L51.3501 119.767Z" fill="#BDBDBD"/>
<path d="M64.2036 124.594L77.057 119.513V129.724L64.2036 135.008V124.594Z" fill="#F3F3F3"/>
<path fill-rule="evenodd" clip-rule="evenodd" d="M64.0354 123.821L33.5082 111.976L5.04639 19.6409H125.266L95.1045 111.69L64.0354 123.821Z" fill="url(#paint3_linear_474_3005)" fill-opacity="0.8"/>
</g>
<g opacity="0.4">
<path d="M214.099 104.64L226.953 99.5598L239.806 104.386L226.953 109.466L214.099 104.64Z" fill="white"/>
<path d="M216.367 104.744L226.953 100.576L237.538 104.536L226.953 108.704L216.367 104.744Z" fill="#797B84"/>
<path d="M226.952 104.64V100.576L237.538 104.536L226.952 108.704V104.64Z" fill="#393A4A"/>
<path d="M214.099 104.64V114.8L226.953 119.88V109.466L214.099 104.64Z" fill="#BDBDBD"/>
<path d="M226.952 109.466L239.806 104.386V114.597L226.952 119.88V109.466Z" fill="#F3F3F3"/>
<path d="M193.804 111.775L206.658 106.695L219.511 111.521L206.658 116.602L193.804 111.775Z" fill="white"/>
<path d="M196.073 111.88L206.658 107.711L217.243 111.671L206.658 115.84L196.073 111.88Z" fill="#797B84"/>
<path d="M206.658 111.776V107.711L217.243 111.671L206.658 115.84V111.776Z" fill="#393A4A"/>
<path d="M193.804 111.775V121.936L206.658 127.016V116.601L193.804 111.775Z" fill="#BDBDBD"/>
<path d="M206.658 116.602L219.511 111.521V121.732L206.658 127.016V116.602Z" fill="#F3F3F3"/>
<path d="M234.49 111.775L247.343 106.695L260.196 111.521L247.343 116.602L234.49 111.775Z" fill="white"/>
<path d="M236.758 111.88L247.343 107.711L257.928 111.671L247.343 115.84L236.758 111.88Z" fill="#797B84"/>
<path d="M247.343 111.776V107.711L257.928 111.671L247.343 115.84V111.776Z" fill="#393A4A"/>
<path d="M234.49 111.775V121.936L247.343 127.016V116.601L234.49 111.775Z" fill="#BDBDBD"/>
<path d="M247.343 116.602L260.196 111.521V121.732L247.343 127.016V116.602Z" fill="#F3F3F3"/>
<path d="M214.099 119.767L226.953 114.687L239.806 119.513L226.953 124.593L214.099 119.767Z" fill="white"/>
<path d="M216.367 119.872L226.953 115.703L237.538 119.663L226.953 123.832L216.367 119.872Z" fill="#797B84"/>
<path d="M226.952 119.767V115.703L237.538 119.663L226.952 123.832V119.767Z" fill="#393A4A"/>
<path d="M214.099 119.767V129.928L226.953 135.008V124.593L214.099 119.767Z" fill="#BDBDBD"/>
<path d="M226.952 124.594L239.806 119.513V129.724L226.952 135.008V124.594Z" fill="#F3F3F3"/>
<path fill-rule="evenodd" clip-rule="evenodd" d="M226.785 123.821L196.257 111.976L167.796 19.6409H288.015L257.854 111.69L226.785 123.821Z" fill="url(#paint4_linear_474_3005)" fill-opacity="0.8"/>
</g>
<g opacity="0.4">
<path d="M46.3037 144.481L59.1571 139.401L72.0105 144.227L59.1571 149.307L46.3037 144.481Z" fill="white"/>
<path d="M48.572 144.585L59.1572 140.417L69.7423 144.377L59.1572 148.545L48.572 144.585Z" fill="#797B84"/>
<path d="M59.157 144.481V140.417L69.7421 144.377L59.157 148.545V144.481Z" fill="#393A4A"/>
<path d="M46.3037 144.481V154.641L59.1571 159.721V149.307L46.3037 144.481Z" fill="#BDBDBD"/>
<path d="M59.157 149.307L72.0104 144.227V154.438L59.157 159.721V149.307Z" fill="#F3F3F3"/>
<path d="M26.0088 151.616L38.8622 146.536L51.7155 151.362L38.8622 156.443L26.0088 151.616Z" fill="white"/>
<path d="M28.2771 151.721L38.8622 147.552L49.4474 151.512L38.8622 155.681L28.2771 151.721Z" fill="#797B84"/>
<path d="M38.8623 151.617V147.552L49.4474 151.512L38.8623 155.681V151.617Z" fill="#393A4A"/>
<path d="M26.0088 151.616V161.777L38.8622 166.857V156.443L26.0088 151.616Z" fill="#BDBDBD"/>
<path d="M38.8623 156.443L51.7157 151.363V161.574L38.8623 166.857V156.443Z" fill="#F3F3F3"/>
<path d="M66.6938 151.616L79.5472 146.536L92.4006 151.362L79.5472 156.443L66.6938 151.616Z" fill="white"/>
<path d="M68.9622 151.721L79.5473 147.552L90.1324 151.512L79.5473 155.681L68.9622 151.721Z" fill="#797B84"/>
<path d="M79.5474 151.617V147.552L90.1325 151.512L79.5474 155.681V151.617Z" fill="#393A4A"/>
<path d="M66.6938 151.616V161.777L79.5472 166.857V156.443L66.6938 151.616Z" fill="#BDBDBD"/>
<path d="M79.5474 156.443L92.4007 151.363V161.574L79.5474 166.857V156.443Z" fill="#F3F3F3"/>
<path d="M46.3037 159.609L59.1571 154.529L72.0105 159.355L59.1571 164.435L46.3037 159.609Z" fill="white"/>
<path d="M48.572 159.713L59.1572 155.544L69.7423 159.504L59.1572 163.673L48.572 159.713Z" fill="#797B84"/>
<path d="M59.157 159.609V155.544L69.7421 159.504L59.157 163.673V159.609Z" fill="#393A4A"/>
<path d="M46.3037 159.609V169.769L59.1571 174.849V164.435L46.3037 159.609Z" fill="#BDBDBD"/>
<path d="M59.157 164.435L72.0104 159.354V169.566L59.157 174.849V164.435Z" fill="#F3F3F3"/>
<path fill-rule="evenodd" clip-rule="evenodd" d="M58.989 163.662L28.4618 151.817L0 59.4819H120.219L90.0582 151.531L58.989 163.662Z" fill="url(#paint5_linear_474_3005)" fill-opacity="0.8"/>
</g>
<path d="M129.316 154.337L148.403 146.793L167.489 153.96L148.403 161.503L129.316 154.337Z" fill="#06AFFF"/>
<path d="M132.684 154.492L148.403 148.302L164.121 154.182L148.403 160.372L132.684 154.492Z" fill="#0551CA"/>
<path d="M148.403 154.337V148.302L164.121 154.182L148.403 160.372V154.337Z" fill="#052DAC"/>
<path d="M129.316 154.337V169.424L148.403 176.968V161.503L129.316 154.337Z" fill="#2F80ED"/>
<path d="M148.403 161.504L167.489 153.96V169.123L148.403 176.968V161.504Z" fill="#3C8AFE"/>
<path d="M99.1797 164.933L118.266 157.389L137.353 164.556L118.266 172.1L99.1797 164.933Z" fill="#FF6677"/>
<path d="M102.548 165.088L118.266 158.898L133.985 164.778L118.266 170.968L102.548 165.088Z" fill="#C13647"/>
<path d="M118.266 164.933V158.898L133.985 164.778L118.266 170.968V164.933Z" fill="#A81525"/>
<path d="M99.1797 164.933V180.021L118.266 187.564V172.1L99.1797 164.933Z" fill="#DE2424"/>
<path d="M118.266 172.1L137.353 164.556V179.719L118.266 187.564V172.1Z" fill="#F32626"/>
<path d="M159.595 164.933L178.682 157.389L197.768 164.556L178.682 172.1L159.595 164.933Z" fill="#FFEE50"/>
<path d="M162.963 165.088L178.682 158.898L194.4 164.778L178.682 170.968L162.963 165.088Z" fill="#FED354"/>
<path d="M178.682 164.933V158.898L194.4 164.778L178.682 170.968V164.933Z" fill="#EEBD43"/>
<path d="M159.595 164.933V180.021L178.682 187.564V172.1L159.595 164.933Z" fill="#DCB616"/>
<path d="M178.682 172.1L197.768 164.556V179.719L178.682 187.564V172.1Z" fill="#FFD215"/>
<path d="M129.316 176.801L148.403 169.257L167.489 176.423L148.403 183.967L129.316 176.801Z" fill="#42E7AA"/>
<path d="M132.684 176.955L148.403 170.765L164.121 176.646L148.403 182.835L132.684 176.955Z" fill="#139565"/>
<path d="M148.403 176.8V170.765L164.121 176.646L148.403 182.835V176.8Z" fill="#117E56"/>
<path d="M129.316 176.801V191.888L148.403 199.432V183.967L129.316 176.801Z" fill="#16A568"/>
<path d="M148.403 183.967L167.489 176.423V191.586L148.403 199.432V183.967Z" fill="#17CE8A"/>
<path fill-rule="evenodd" clip-rule="evenodd" d="M148.153 182.82L102.822 165.23L60.5579 28.1177H239.077L194.29 164.806L148.153 182.82Z" fill="url(#paint6_linear_474_3005)" fill-opacity="0.8"/>
<path d="M257.528 86.8076V75.646C257.003 71.8309 253.854 68.2049 248.605 64.8943V76.0559C253.854 79.3666 257.003 82.9925 257.528 86.8076ZM245.915 74.4794V63.3178C244.078 62.3088 241.979 61.3314 239.748 60.417V71.5786C241.979 72.493 244.013 73.4704 245.915 74.4794ZM235.943 70.0652V58.9036C233.515 58.0207 230.891 57.1379 228.07 56.3497V67.5113C230.891 68.3311 233.515 69.1824 235.943 70.0652ZM222.821 69.3715V51.5886C244.209 57.0433 257.594 64.8628 257.594 73.502V91.2849C257.594 82.6457 244.275 74.8262 222.821 69.3715Z" fill="#646D82"/>
<path d="M183.652 60.8584V57.6423C182.012 57.4847 180.371 57.3586 178.665 57.2324V60.4485C180.371 60.5431 182.012 60.7007 183.652 60.8584ZM174.729 56.9171V54.0794C173.023 53.9533 171.317 53.8587 169.611 53.7641V56.6018C171.317 56.728 173.023 56.8226 174.729 56.9171ZM192.247 58.5252V54.6785C190.672 54.4893 189.097 54.3001 187.457 54.1425V58.0207C189.097 58.1783 190.672 58.3675 192.247 58.5252ZM165.544 56.4442V50.7057C163.772 50.6427 162.066 50.5796 160.295 50.5165V56.2235C162.001 56.3181 163.772 56.3496 165.544 56.4442ZM146.386 56.1289V50.3904C144.614 50.3904 142.777 50.422 141.006 50.4535V56.1604C142.777 56.1604 144.614 56.1289 146.386 56.1289ZM136.872 56.2865V49.0977C135.101 49.1608 133.395 49.2238 131.624 49.2869V56.4757C133.395 56.4127 135.101 56.3496 136.872 56.2865ZM156.03 56.1604V47.9311C154.456 47.8996 152.815 47.8996 151.175 47.868C150.978 47.868 150.782 47.868 150.585 47.868V56.0974C150.782 56.0974 150.978 56.0974 151.175 56.0974C152.815 56.1289 154.456 56.1289 156.03 56.1604ZM127.621 56.6964V46.4176C125.916 46.5122 124.21 46.6068 122.57 46.7329V57.0117C124.21 56.9171 125.916 56.791 127.621 56.6964ZM111.613 45.5348C123.947 44.2736 137.266 43.6115 151.175 43.6745C169.743 43.7691 187.195 45.1249 202.285 47.4897V65.2726C187.129 62.9394 169.743 61.5521 151.175 61.4575C137.266 61.3944 123.882 62.0565 111.613 63.3177V45.5348Z" fill="#646D82"/>
<path d="M43.4451 74.0926V78.0339C45.4511 75.3955 46.9224 74.7232 48.6939 73.0878C51.1131 71.4601 52.3024 70.6284 55.1892 69.3672C58.076 68.106 71.4603 63.0297 82.4826 60.665V57.1967C80.5144 57.6066 78.6117 58.048 76.7746 58.5209C75.8561 58.7416 74.9376 58.9939 74.019 59.2146C64.965 61.3902 55.7797 65.6152 55.7797 65.6152C55.7797 65.6152 44.9541 70.4667 43.4451 74.0926ZM42.0017 69.5249C46.2007 60.8541 63.9152 53.3815 88.9779 48.7151V66.498C63.9152 71.1645 46.2007 78.6371 42.0017 87.3078V69.5249Z" fill="#646D82"/>
<path d="M43.5474 74.0695V78.0108C45.5533 75.3724 47.0247 74.7001 48.7961 73.0647C51.2153 71.4371 52.4046 70.6054 55.2914 69.3442C58.1782 68.083 71.5625 63.0066 82.5849 60.6419V57.1736C80.6166 57.5835 78.7139 58.0249 76.8769 58.4978C75.9583 58.7186 75.0398 58.9708 74.1213 59.1915C65.0672 61.3671 55.8819 65.5921 55.8819 65.5921C55.8819 65.5921 45.0564 70.4436 43.5474 74.0695Z" fill="#42E7AA"/>
<path opacity="0.7529" d="M249.079 64.8479C254.327 68.1586 257.477 71.7845 258.001 75.5996V86.7613C257.477 82.9461 254.327 79.3202 249.079 76.0095V64.8479Z" fill="#42E7AA"/>
<path d="M240.221 60.3391C242.452 61.285 244.551 62.2624 246.388 63.2399V74.4015C244.551 73.3925 242.452 72.4151 240.221 71.5007V60.3391Z" fill="#42E7AA"/>
<path opacity="0.7529" d="M228.543 56.3032C231.299 57.123 233.923 57.9743 236.416 58.8572V70.0188C233.989 69.1359 231.364 68.2531 228.543 67.4648V56.3032Z" fill="#42E7AA"/>
<path d="M187.457 54.3108C189.032 54.4684 190.672 54.6576 192.247 54.8468V58.725C190.672 58.5358 189.097 58.3466 187.457 58.189V54.3108Z" fill="#42E7AA"/>
<path opacity="0.7529" d="M178.731 57.3691C180.372 57.4953 182.078 57.6529 183.718 57.779V60.9951C182.078 60.8374 180.437 60.7113 178.731 60.5852V57.3691Z" fill="#42E7AA"/>
<path d="M169.612 53.9639C171.318 54.0585 173.024 54.153 174.73 54.2792V57.1169C173.024 56.9907 171.318 56.8962 169.612 56.8016V53.9639Z" fill="#42E7AA"/>
<path opacity="0.7529" d="M160.229 50.5706C162.001 50.6336 163.772 50.6651 165.478 50.7597V56.4667C163.707 56.4036 162.001 56.3405 160.229 56.2775V50.5706Z" fill="#42E7AA"/>
<path opacity="0.7529" d="M150.651 47.8906C150.847 47.8906 151.044 47.8906 151.241 47.8906C152.881 47.8906 154.456 47.9222 156.096 47.9537V56.183C154.522 56.1515 152.881 56.1515 151.241 56.12C151.044 56.12 150.847 56.12 150.651 56.12V47.8906Z" fill="#42E7AA"/>
<path d="M141.006 50.5076C142.777 50.4761 144.549 50.4446 146.386 50.4446V56.1515C144.614 56.1515 142.777 56.183 141.006 56.2146V50.5076Z" fill="#42E7AA"/>
<path opacity="0.7529" d="M131.689 49.3408C133.395 49.2777 135.167 49.1831 136.938 49.1516V56.3089C135.167 56.372 133.461 56.435 131.689 56.4981V49.3408Z" fill="#42E7AA"/>
<path d="M122.504 46.7555C124.21 46.6294 125.85 46.5348 127.556 46.4402V56.719C125.85 56.8136 124.144 56.9081 122.504 57.0343V51.8949V46.7555Z" fill="#42E7AA"/>
<path d="M75.6593 118.834V115.839C76.9058 116.154 78.218 116.47 79.5302 116.785V119.78C78.218 119.465 76.9715 119.15 75.6593 118.834ZM63.3903 115.082V109.533C64.4401 109.911 65.4898 110.29 66.6052 110.637V116.186C65.4898 115.807 64.4401 115.429 63.3903 115.082ZM69.2296 117.006V110.479C70.4105 110.826 71.5915 111.173 72.7725 111.519V118.046C71.5915 117.699 70.4105 117.352 69.2296 117.006ZM53.4833 110.794V103.542C54.2706 103.952 55.1236 104.394 55.9765 104.803V112.055C55.1236 111.614 54.3363 111.204 53.4833 110.794ZM58.1416 113.001V105.15C59.0601 105.56 60.0443 105.939 61.0284 106.317V114.168C59.9786 113.79 59.0601 113.38 58.1416 113.001ZM46.3319 106.033V97.52C46.8568 97.993 47.4473 98.4344 48.0378 98.8758V107.389C47.4473 106.947 46.9224 106.506 46.3319 106.033ZM49.5468 108.461V97.3939C50.2029 97.8353 50.9246 98.2767 51.6463 98.7182V109.785C50.9246 109.344 50.2685 108.902 49.5468 108.461ZM43.9044 103.542V91.0248C44.298 91.4978 44.6917 91.9707 45.2166 92.4437V104.93C44.6917 104.488 44.298 104.015 43.9044 103.542ZM87.4033 106.317C62.6686 101.524 45.6102 93.9571 42.0017 85.2864V103.069C45.6102 111.74 62.6686 119.307 87.4033 124.1V106.317Z" fill="#3F4658"/>
<path d="M159.967 126.118V122.113C164.231 121.987 168.43 121.829 172.498 121.577V125.581C168.43 125.834 164.231 125.991 159.967 126.118ZM139.956 126.149V118.834C142.515 118.897 145.073 118.929 147.698 118.96C149.469 118.96 151.241 118.96 153.012 118.96V126.275C151.241 126.275 149.469 126.307 147.698 126.275C145.073 126.244 142.515 126.212 139.956 126.149ZM120.667 125.172V114.01C124.669 114.325 128.802 114.546 133.067 114.735V125.897C128.868 125.739 124.735 125.487 120.667 125.172ZM179.125 125.14V113.316C183.127 113.001 187.063 112.623 190.869 112.213V124.005C187.063 124.446 183.127 124.825 179.125 125.14ZM200.71 108.24C184.964 110.573 166.856 111.866 147.698 111.771C134.314 111.708 121.585 110.983 109.841 109.69V127.473C121.585 128.734 134.314 129.491 147.698 129.554C166.856 129.649 184.964 128.356 200.71 126.023V108.24Z" fill="#3F4658"/>
<path d="M227.282 113.316V109.88C244.538 104.992 255.757 98.4657 257.594 91.1823V94.6191C255.757 101.903 244.538 108.429 227.282 113.316ZM257.856 100.231V82.4485C257.331 91.1508 243.291 98.9072 221.443 104.267V122.05C243.357 116.69 257.331 108.902 257.856 100.231Z" fill="#3F4658"/>
<path d="M257.594 91.1824C255.757 98.4343 244.538 104.993 227.282 109.88V113.316C244.538 108.429 255.757 101.903 257.594 94.6191V91.1824Z" fill="#F3F3F3"/>
<path d="M133.068 114.735C128.869 114.546 124.735 114.325 120.668 114.01V125.171C124.67 125.487 128.803 125.707 133.068 125.897V114.735Z" fill="#F3F3F3"/>
<path d="M172.498 121.577C168.365 121.829 164.232 121.987 159.967 122.113V126.117C164.232 125.991 168.431 125.834 172.498 125.581V121.577Z" fill="#F3F3F3"/>
<path d="M190.869 112.087C187.063 112.528 183.127 112.906 179.125 113.19V124.982C183.127 124.667 187.063 124.289 190.869 123.879V112.087Z" fill="#F3F3F3"/>
<path opacity="0.7529" d="M153.013 118.928C151.241 118.928 149.47 118.96 147.698 118.928C145.074 118.928 142.515 118.865 139.957 118.802V126.117C142.515 126.18 145.074 126.212 147.698 126.243C149.47 126.243 151.241 126.243 153.013 126.243V118.928Z" fill="#F3F3F3"/>
<path d="M45.2165 92.5065C44.7572 92.0335 44.298 91.5606 43.9043 91.0876V103.574C44.298 104.046 44.6916 104.519 45.2165 104.992V92.5065Z" fill="#F3F3F3"/>
<path d="M48.0376 98.9703C47.4471 98.5289 46.8567 98.0559 46.3318 97.6145V106.128C46.8567 106.601 47.4471 107.042 48.0376 107.483V98.9703Z" fill="#F3F3F3"/>
<path opacity="0.7529" d="M51.7118 98.781C50.9901 98.3396 50.2684 97.8982 49.6123 97.4568V108.524C50.2684 108.965 50.9901 109.407 51.7118 109.848V98.781Z" fill="#F3F3F3"/>
<path d="M56.042 104.835C55.1891 104.425 54.3361 104.015 53.5488 103.573V110.825C54.3361 111.235 55.1891 111.677 56.042 112.087V104.835Z" fill="#F3F3F3"/>
<path d="M60.9625 106.38C59.9784 106.001 58.9942 105.591 58.0757 105.213V113.064C58.9942 113.474 59.9784 113.852 60.9625 114.231V106.38Z" fill="#F3F3F3"/>
<path opacity="0.7529" d="M66.605 110.699C65.4896 110.352 64.4399 109.974 63.3901 109.596V115.145C64.4399 115.523 65.4896 115.902 66.605 116.249V110.699Z" fill="#F3F3F3"/>
<path d="M72.7719 111.582C71.5909 111.235 70.41 110.889 69.229 110.542V117.068C70.41 117.415 71.5909 117.762 72.7719 118.109V111.582Z" fill="#F3F3F3"/>
<path opacity="0.7529" d="M79.5301 116.816C78.2179 116.501 76.9714 116.186 75.6592 115.87V118.866C76.9058 119.181 78.2179 119.496 79.5301 119.812V116.816Z" fill="#F3F3F3"/>
<defs>
<linearGradient id="paint0_linear_474_3005" x1="235.511" y1="88.5953" x2="235.511" y2="164.093" gradientUnits="userSpaceOnUse">
<stop stop-color="white" stop-opacity="0"/>
<stop offset="0.862563" stop-color="#C4C4C4" stop-opacity="0.43"/>
<stop offset="1" stop-color="#C4C4C4" stop-opacity="0"/>
</linearGradient>
<linearGradient id="paint1_linear_474_3005" x1="145.936" y1="29.6814" x2="145.936" y2="105.179" gradientUnits="userSpaceOnUse">
<stop stop-color="white" stop-opacity="0"/>
<stop offset="0.862563" stop-color="#C4C4C4" stop-opacity="0.43"/>
<stop offset="1" stop-color="#C4C4C4" stop-opacity="0"/>
</linearGradient>
<linearGradient id="paint2_linear_474_3005" x1="144.674" y1="62.3172" x2="144.674" y2="137.815" gradientUnits="userSpaceOnUse">
<stop stop-color="white" stop-opacity="0"/>
<stop offset="0.862563" stop-color="#C4C4C4" stop-opacity="0.43"/>
<stop offset="1" stop-color="#C4C4C4" stop-opacity="0"/>
</linearGradient>
<linearGradient id="paint3_linear_474_3005" x1="60.7761" y1="48.7542" x2="60.7761" y2="124.252" gradientUnits="userSpaceOnUse">
<stop stop-color="white" stop-opacity="0"/>
<stop offset="0.862563" stop-color="#C4C4C4" stop-opacity="0.43"/>
<stop offset="1" stop-color="#C4C4C4" stop-opacity="0"/>
</linearGradient>
<linearGradient id="paint4_linear_474_3005" x1="223.525" y1="48.7542" x2="223.525" y2="124.252" gradientUnits="userSpaceOnUse">
<stop stop-color="white" stop-opacity="0"/>
<stop offset="0.862563" stop-color="#C4C4C4" stop-opacity="0.43"/>
<stop offset="1" stop-color="#C4C4C4" stop-opacity="0"/>
</linearGradient>
<linearGradient id="paint5_linear_474_3005" x1="55.7298" y1="88.5953" x2="55.7298" y2="164.093" gradientUnits="userSpaceOnUse">
<stop stop-color="white" stop-opacity="0"/>
<stop offset="0.862563" stop-color="#C4C4C4" stop-opacity="0.43"/>
<stop offset="1" stop-color="#C4C4C4" stop-opacity="0"/>
</linearGradient>
<linearGradient id="paint6_linear_474_3005" x1="143.314" y1="71.3495" x2="143.314" y2="183.46" gradientUnits="userSpaceOnUse">
<stop stop-color="white" stop-opacity="0"/>
<stop offset="0.862563" stop-color="#C4C4C4" stop-opacity="0.43"/>
<stop offset="1" stop-color="#C4C4C4" stop-opacity="0"/>
</linearGradient>
</defs>
</svg>
